<svg width="21" height="19" viewBox="0 0 21 19" fill="none" xmlns="http://www.w3.org/2000/svg">
<path d="M21 12.1442V13.2472C21 13.3105 20.9615 13.3668 20.9055 13.3915C20.5625 13.5392 19.3883 14.0811 18.9 14.7637C17.654 16.5071 16.702 19 14.574 19H5.69624C2.54976 19 0 16.428 0 13.2542V13.1522C0 13.0678 0.0682347 12.9992 0.152242 12.9992H5.10127C5.19924 12.9992 5.27099 13.0906 5.26226 13.1874C5.22724 13.5111 5.28676 13.8418 5.439 14.1427C5.73299 14.7426 6.342 15.1173 6.99999 15.1173H9.45001V13.1945H7.02799C6.90375 13.1945 6.83027 13.0502 6.90201 12.9482C6.92825 12.9077 6.95802 12.8655 6.9895 12.818C7.21876 12.4908 7.546 11.9823 7.87151 11.4035C8.09376 11.013 8.30899 10.596 8.48225 10.1773C8.51727 10.1017 8.54524 10.0242 8.57324 9.9486C8.62049 9.8149 8.66951 9.69 8.7045 9.5651C8.73952 9.45952 8.76749 9.3487 8.79549 9.2449C8.87776 8.88952 8.91275 8.51305 8.91275 8.1225C8.91275 7.96945 8.90576 7.80935 8.89176 7.6563C8.88474 7.48918 8.86376 7.32202 8.84274 7.1549C8.82874 7.00712 8.80251 6.8611 8.7745 6.70805C8.73952 6.48462 8.6905 6.26298 8.63449 6.03952L8.61524 5.9551C8.57324 5.80202 8.53825 5.65603 8.48927 5.50298C8.35099 5.02267 8.19177 4.55473 8.02375 4.11668C7.9625 3.9425 7.89249 3.77538 7.82249 3.60825C7.71927 3.35668 7.61424 3.12798 7.518 2.91158C7.46901 2.81305 7.42701 2.72332 7.38501 2.63185C7.33776 2.52805 7.28877 2.42425 7.23975 2.32575C7.20476 2.2501 7.16449 2.17973 7.13649 2.10935L6.83725 1.55342C6.79525 1.47777 6.86526 1.38805 6.94749 1.41092L8.82002 1.9211H8.82526C8.82874 1.9211 8.83051 1.92288 8.83225 1.92288L9.07899 1.99147L9.35026 2.0689L9.45001 2.09702V0.97815C9.45001 0.438048 9.8805 0 10.4125 0C10.6785 0 10.92 0.109075 11.0933 0.286746C11.2665 0.464452 11.375 0.707226 11.375 0.97815V2.6389L11.5745 2.69517C11.5903 2.70048 11.606 2.7075 11.62 2.71805C11.669 2.755 11.739 2.80952 11.8282 2.8764C11.8983 2.93267 11.9735 3.0013 12.0645 3.07168C12.2447 3.21767 12.46 3.40592 12.6963 3.62233C12.7592 3.67685 12.8205 3.73315 12.8765 3.78945C13.181 4.07445 13.5223 4.4087 13.8478 4.77815C13.9388 4.88195 14.028 4.9875 14.119 5.09832C14.21 5.21092 14.3063 5.32175 14.3902 5.4326C14.5005 5.58038 14.6195 5.73342 14.7228 5.89353C14.7718 5.96918 14.8278 6.04657 14.875 6.12223C15.008 6.32452 15.1253 6.5339 15.2373 6.74325C15.2845 6.84 15.3335 6.94555 15.3755 7.04935C15.4998 7.32907 15.5978 7.61407 15.6607 7.89907C15.68 7.96065 15.694 8.0275 15.701 8.08733V8.1014C15.722 8.18582 15.729 8.27555 15.736 8.36702C15.764 8.65908 15.75 8.95109 15.687 9.2449C15.6607 9.36983 15.6258 9.48767 15.5838 9.6126C15.5418 9.73223 15.4997 9.85712 15.4455 9.975C15.3405 10.2195 15.2162 10.4641 15.0693 10.6928C15.022 10.7772 14.966 10.867 14.91 10.9514C14.8487 11.0411 14.7858 11.1255 14.7297 11.2083C14.6528 11.3138 14.5705 11.4246 14.4865 11.5231C14.4113 11.627 14.3343 11.7308 14.2503 11.8222C14.133 11.9612 14.021 12.0932 13.9037 12.2198C13.8338 12.3025 13.7585 12.387 13.6815 12.4626C13.6063 12.547 13.5292 12.6227 13.4592 12.693C13.342 12.8109 13.244 12.9024 13.1617 12.978L12.9693 13.1558C12.9413 13.1804 12.9045 13.1945 12.866 13.1945H11.375V15.1173H13.251C13.671 15.1173 14.07 14.9678 14.392 14.6933C14.5023 14.5966 14.9835 14.1779 15.5522 13.5463C15.5715 13.5252 15.596 13.5093 15.624 13.5023L20.8058 11.9964C20.902 11.9683 21 12.0421 21 12.1442Z" fill="white"/>
</svg>
