<svg width="23" height="17" viewBox="0 0 23 17" fill="none" xmlns="http://www.w3.org/2000/svg">
<path d="M16.9889 16.9802C16.9889 16.9802 16.2799 16.1018 15.6887 15.3468C18.2701 14.5917 19.2551 12.9385 19.2551 12.9385C18.5452 13.4276 17.785 13.8315 16.9889 14.1426C16.0039 14.5719 15.0569 14.8368 14.1315 15.0209C12.2387 15.3878 10.5056 15.2859 9.02682 14.9997C8.03529 14.8087 7.06447 14.5145 6.12882 14.1214C5.63467 13.9257 5.15412 13.6942 4.69065 13.4286C4.63112 13.3875 4.57294 13.3677 4.51341 13.3266C4.47282 13.3068 4.45388 13.2855 4.43494 13.2855C4.07912 13.0815 3.88294 12.9385 3.88294 12.9385C3.88294 12.9385 4.82865 14.5506 7.33159 15.3269C6.74035 16.1018 6.01112 17 6.01112 17C1.65465 16.8583 0 13.9188 0 13.9188C0 7.40785 2.83847 2.12232 2.83847 2.12232C5.67559 -0.0607458 8.35712 0.000170197 8.35712 0.000170197L8.55329 0.245251C5.00588 1.28649 3.39047 2.89864 3.39047 2.89864C3.39047 2.89864 3.82341 2.65356 4.55265 2.32631C6.66188 1.36724 8.33682 1.12216 9.02682 1.04141C9.14453 1.02016 9.24329 1.00033 9.361 1.00033C10.682 0.822011 12.0186 0.808221 13.3427 0.959244C15.2152 1.18449 17.2256 1.7554 19.2754 2.89864C19.2754 2.89864 17.7181 1.36866 14.3682 0.327417L14.6429 0.00158685C14.6429 0.00158685 17.3434 -0.0607458 20.1629 2.12232C20.1629 2.12232 23 7.40785 23 13.9188C23 13.8975 21.344 16.8371 16.9889 16.9787V16.9802ZM15.0176 7.53109C13.8947 7.53109 13.0072 8.53125 13.0072 9.77507C13.0072 11.0217 13.9136 12.0205 15.0176 12.0205C16.1406 12.0205 17.0281 11.0203 17.0281 9.77507C17.0281 8.53125 16.1216 7.53109 15.0176 7.53109ZM7.82406 7.53109C6.70112 7.53109 5.81359 8.53125 5.81359 9.77507C5.81359 11.0217 6.72006 12.0205 7.82406 12.0205C8.947 12.0205 9.83453 11.0203 9.83453 9.77507C9.85482 8.53125 8.94835 7.53109 7.82406 7.53109Z" fill="white"/>
</svg>
