<svg width="22" height="22" viewBox="0 0 22 22" fill="none" xmlns="http://www.w3.org/2000/svg">
<path d="M11 22C17.0751 22 22 17.0751 22 11C22 4.92487 17.0751 0 11 0C4.92487 0 0 4.92487 0 11C0 17.0751 4.92487 22 11 22ZM17.6 5.62537L17.5836 5.62893C16.9715 5.76516 16.6606 5.96833 16.6606 6.70103H16.6578L16.6606 15.4911C16.7131 16.0698 17.0286 16.2485 17.5836 16.3719L17.6 16.3756V16.5H13.3278V16.3756L13.3442 16.3719C13.8986 16.2485 14.2067 16.0698 14.2591 15.4911V6.93974L10.1413 16.4803H9.91442L5.9132 7.19858V15.2792C5.9132 16.0119 6.22405 16.2151 6.83634 16.3513L6.85257 16.3549V16.4803H4.4V16.3545L4.41622 16.3509C5.02851 16.2147 5.34057 16.0115 5.34057 15.2788V6.70103C5.34057 5.96833 5.02972 5.76516 4.41743 5.62893L4.4012 5.62537V5.5H8.01606L11.1308 12.7164L14.2455 5.5H17.6V5.62537Z" fill="white"/>
</svg>
